<svg width="12" height="18" viewBox="0 0 12 18" fill="none" xmlns="http://www.w3.org/2000/svg">
<path id="phone" fill-rule="evenodd" clip-rule="evenodd" d="M11.9061 14.9807C12.0059 15.1684 12.0272 15.3882 11.965 15.5916C11.9028 15.795 11.7624 15.9653 11.5746 16.0652C11.2463 16.2398 10.8518 16.4496 10.4999 16.6367C9.89665 16.9576 9.20559 17.0741 8.53045 16.9688C8.28947 16.9312 8.02776 16.8904 7.76962 16.8501C6.78041 16.6958 5.92151 16.0848 5.45142 15.2009C4.18574 12.821 1.63394 8.02272 0.370667 5.64738C-0.0971752 4.76763 -0.123558 3.71895 0.299537 2.81683C0.411485 2.57809 0.525158 2.33571 0.629729 2.11278C0.919825 1.49413 1.40278 0.986274 2.00607 0.665464C2.35792 0.478335 2.75246 0.268511 3.08073 0.0938922C3.26854 -0.00594737 3.48831 -0.0271583 3.69168 0.035031C3.89508 0.0971801 4.06545 0.237597 4.16533 0.425368C4.48626 1.0289 4.95206 1.90472 5.31597 2.589C5.46349 2.86639 5.49476 3.191 5.40294 3.49144C5.31112 3.79189 5.1037 4.04353 4.82636 4.19104C4.65278 4.28335 4.47018 4.38046 4.28907 4.47681C3.90972 4.67853 3.62604 5.02272 3.50046 5.43359C3.37488 5.84449 3.41766 6.28844 3.61938 6.66779C4.41385 8.16161 5.65194 10.4896 6.44055 11.9725C6.85214 12.7464 7.81317 13.0402 8.58706 12.6286C8.78145 12.5252 8.9782 12.4206 9.16429 12.3216C9.73586 12.0176 10.4456 12.2345 10.7497 12.8061C11.1144 13.492 11.5834 14.3739 11.9061 14.9807Z" fill="#4B4B4B"/>
</svg>
