<svg xmlns="http://www.w3.org/2000/svg" xmlns:xlink="http://www.w3.org/1999/xlink" viewBox="0,0,256,256" width="32px" height="32px" fill-rule="nonzero"><g fill="#bcb6b6" fill-rule="nonzero" stroke="none" stroke-width="1" stroke-linecap="butt" stroke-linejoin="miter" stroke-miterlimit="10" stroke-dasharray="" stroke-dashoffset="0" font-family="none" font-weight="none" font-size="none" text-anchor="none" style="mix-blend-mode: normal"><g transform="scale(10.66667,10.66667)"><circle cx="12" cy="12" r="10" opacity="0.35"></circle><path d="M12.222,5.708c-4.316,0 -6.608,2.898 -6.608,6.052c0,1.467 0.781,3.292 2.03,3.874c0.189,0.088 0.291,0.05 0.334,-0.133c0.033,-0.139 0.202,-0.818 0.278,-1.134c0.024,-0.101 0.012,-0.188 -0.069,-0.287c-0.413,-0.502 -0.744,-1.423 -0.744,-2.282c0,-2.206 1.67,-4.34 4.515,-4.34c2.457,0 4.177,1.674 4.177,4.068c0,2.705 -1.366,4.579 -3.143,4.579c-0.982,0 -1.717,-0.812 -1.481,-1.807c0.282,-1.188 0.828,-2.471 0.828,-3.329c0,-0.768 -0.412,-1.408 -1.265,-1.408c-1.003,0 -1.809,1.037 -1.809,2.428c0,0.885 0.299,1.484 0.299,1.484c0,0 -0.991,4.191 -1.173,4.971c-0.201,0.861 -0.123,2.071 -0.036,2.862c0.226,0.088 0.451,0.177 0.685,0.249c0.408,-0.664 1.017,-1.753 1.243,-2.621c0.122,-0.468 0.623,-2.378 0.623,-2.378c0.326,0.622 1.278,1.148 2.292,1.148c3.016,0 5.189,-2.773 5.189,-6.22c0,-3.304 -2.696,-5.776 -6.165,-5.776z"></path></g></g></svg>