<svg width="80" height="80" viewBox="0 0 80 80" fill="none" xmlns="http://www.w3.org/2000/svg">
<g id="plane-icon">
<path id="oval" fill-rule="evenodd" clip-rule="evenodd" d="M40 80C62.0914 80 80 62.0914 80 40C80 17.9086 62.0914 0 40 0C17.9086 0 0 17.9086 0 40C0 62.0914 17.9086 80 40 80Z" fill="#4B4B4B"/>
<g id="Plane">
<path id="Plane_2" fill-rule="evenodd" clip-rule="evenodd" d="M56.4863 55.9788C56.6149 56.4809 56.4676 57.0205 56.1008 57.3873L54.5374 58.9533C54.4302 59.0605 54.2736 59.1107 54.128 59.092C53.9774 59.0716 53.8463 58.9831 53.7706 58.8511L43.8974 41.5524L42.9323 41.389L31.8208 51.0886L33.2132 57.0435C33.334 57.5626 33.1817 58.098 32.8055 58.475L31.7791 59.5014C31.6676 59.6137 31.511 59.6605 31.3527 59.6282C31.1978 59.5967 31.0702 59.4903 31.0115 59.3422L28.7144 53.5958L26.0455 50.9448L20.2591 48.6273C20.1298 48.5754 20.037 48.4631 20.0089 48.3252C19.98 48.189 20.0225 48.0486 20.1229 47.9482L21.1961 46.8741C21.4923 46.5763 21.8855 46.4154 22.2923 46.4154C22.4115 46.4154 22.5323 46.4299 22.6515 46.458L28.5842 47.8486L38.2736 36.7226L38.1102 35.7584L20.734 25.818C20.6242 25.755 20.5519 25.6477 20.5349 25.5218C20.5187 25.3992 20.5612 25.2741 20.6489 25.1856L22.2625 23.5703C22.648 23.1848 23.2157 23.0299 23.7408 23.1652L46.0949 28.8945L52.3144 22.6682C52.9357 22.0452 53.7629 21.7022 54.6421 21.7022C55.5093 21.7022 56.3578 22.0545 56.9715 22.669C57.5842 23.2826 57.9366 24.1328 57.9366 25.0009C57.9366 25.869 57.5842 26.7184 56.9706 27.3328L50.7527 33.5584L56.4863 55.9788Z" stroke="white" stroke-width="2"/>
</g>
</g>
</svg>
