<svg width="154" height="75" viewBox="0 0 154 75" fill="none" xmlns="http://www.w3.org/2000/svg">
<g id="social">
<g id="twitter">
<mask id="mask0_2_1212" style="mask-type:luminance" maskUnits="userSpaceOnUse" x="1" y="50" width="30" height="24">
<path id="Clip 2" fill-rule="evenodd" clip-rule="evenodd" d="M1.00003 73.9748H30.4167V50.0056H1.00003V73.9748Z" fill="white"/>
</mask>
<g mask="url(#mask0_2_1212)">
<path id="Fill 1" fill-rule="evenodd" clip-rule="evenodd" d="M30.4232 52.8438C29.3406 53.3252 28.1772 53.6506 26.9561 53.7969C28.2025 53.0478 29.1596 51.8616 29.6103 50.4483C28.444 51.1418 27.1521 51.6456 25.7771 51.9171C24.6759 50.7407 23.107 50.0056 21.3709 50.0056C18.037 50.0056 15.3342 52.7156 15.3342 56.0582C15.3342 56.5326 15.3877 56.9945 15.4905 57.4375C10.4736 57.1851 6.02561 54.7754 3.04832 51.1135C2.52871 52.0075 2.23103 53.0472 2.23103 54.1564C2.23103 56.2563 3.29682 58.1089 4.91655 59.1943C3.92695 59.1629 2.99623 58.8906 2.18227 58.4373C2.18184 58.4626 2.18184 58.4879 2.18184 58.5134C2.18184 61.446 4.26263 63.8924 7.02414 64.4483C6.51756 64.5867 5.98428 64.6606 5.43368 64.6606C5.04473 64.6606 4.66654 64.6227 4.29804 64.552C5.06615 66.9567 7.29546 68.7066 9.93696 68.7555C7.87103 70.3788 5.26816 71.3465 2.44003 71.3465C1.95282 71.3465 1.47228 71.3179 1.00003 71.262C3.67146 72.9793 6.84451 73.9813 10.2535 73.9813C21.3568 73.9813 27.4284 64.7584 27.4284 56.76C27.4284 56.4976 27.4226 56.2366 27.411 55.977C28.5903 55.1237 29.6138 54.0576 30.4232 52.8438Z" fill="#4B4B4B"/>
</g>
</g>
<g id="facebook">
<mask id="mask1_2_1212" style="mask-type:luminance" maskUnits="userSpaceOnUse" x="64" y="50" width="24" height="25">
<path id="Clip 2_2" fill-rule="evenodd" clip-rule="evenodd" d="M64 74.0602H87.9905V50.0054H64V74.0602Z" fill="white"/>
</mask>
<g mask="url(#mask1_2_1212)">
<path id="Fill 1_2" fill-rule="evenodd" clip-rule="evenodd" d="M86.6664 50.0054H65.324C64.5927 50.0054 64 50.5997 64 51.333V72.7326C64 73.4658 64.5927 74.0603 65.324 74.0603H76.8141V64.7449H73.6876V61.1145H76.8141V58.4373C76.8141 55.3304 78.7066 53.6385 81.4708 53.6385C82.795 53.6385 83.9329 53.7373 84.2645 53.7815V57.0285L82.3474 57.0294C80.8441 57.0294 80.553 57.7456 80.553 58.7967V61.1145H84.1383L83.6716 64.7449H80.553V74.0603H86.6664C87.3977 74.0603 87.9905 73.4658 87.9905 72.7326V51.333C87.9905 50.5997 87.3977 50.0054 86.6664 50.0054Z" fill="#4B4B4B"/>
</g>
</g>
<g id="instagram">
<mask id="mask2_2_1212" style="mask-type:luminance" maskUnits="userSpaceOnUse" x="121" y="50" width="24" height="25">
<path id="Clip 2_3" fill-rule="evenodd" clip-rule="evenodd" d="M121 74.0647H145V50.0054H121V74.0647Z" fill="white"/>
</mask>
<g mask="url(#mask2_2_1212)">
<path id="Fill 1_3" fill-rule="evenodd" clip-rule="evenodd" d="M142.333 56.6899C142.333 57.0591 142.035 57.3584 141.667 57.3584H138.333C137.965 57.3584 137.667 57.0591 137.667 56.6899V53.3476C137.667 52.9785 137.965 52.6792 138.333 52.6792H141.667C142.035 52.6792 142.333 52.9785 142.333 53.3476V56.6899ZM142.333 70.7274C142.333 71.0966 142.035 71.3959 141.667 71.3959H124.333C123.965 71.3959 123.667 71.0966 123.667 70.7274V60.0322H125.943C125.763 60.6696 125.667 61.3424 125.667 62.0375C125.667 66.0985 128.95 69.3905 133 69.3905C137.05 69.3905 140.333 66.0985 140.333 62.0375C140.333 61.3424 140.237 60.6696 140.057 60.0322H142.333V70.7274ZM133 57.3584C135.577 57.3584 137.667 59.4533 137.667 62.0375C137.667 64.6218 135.577 66.7167 133 66.7167C130.423 66.7167 128.333 64.6218 128.333 62.0375C128.333 59.4533 130.423 57.3584 133 57.3584ZM141.667 50.0054H124.333C122.492 50.0054 121 51.5018 121 53.3476V70.7274C121 72.5733 122.492 74.0697 124.333 74.0697H141.667C143.508 74.0697 145 72.5733 145 70.7274V53.3476C145 51.5018 143.508 50.0054 141.667 50.0054Z" fill="#4B4B4B"/>
</g>
</g>
<g id="google-plus">
<path id="Shape" fill-rule="evenodd" clip-rule="evenodd" d="M129.22 10.8349V14.7677H135.584C135.327 16.4556 133.66 19.7165 129.22 19.7165C125.389 19.7165 122.264 16.4719 122.264 12.4736C122.264 8.47525 125.389 5.23069 129.22 5.23069C131.4 5.23069 132.859 6.18112 133.692 7.00045L136.738 4.00169C134.782 2.13361 132.25 1.00293 129.22 1.00293C123.017 1.00293 118 6.13196 118 12.4736C118 18.8152 123.017 23.9443 129.22 23.9443C135.696 23.9443 139.992 19.2905 139.992 12.7358C139.992 11.982 139.912 11.4085 139.815 10.8349H129.22Z" fill="#4B4B4B"/>
<path id="Shape_2" fill-rule="evenodd" clip-rule="evenodd" d="M153.264 10.835H150.058V7.55762H146.852V10.835H143.646V14.1123H146.852V17.3896H150.058V14.1123H153.264" fill="#4B4B4B"/>
</g>
<g id="linkedin">
<mask id="mask3_2_1212" style="mask-type:luminance" maskUnits="userSpaceOnUse" x="60" y="1" width="25" height="25">
<path id="Clip 9" fill-rule="evenodd" clip-rule="evenodd" d="M60.046 25.0267H84.7386V1.00244H60.046V25.0267Z" fill="white"/>
</mask>
<g mask="url(#mask3_2_1212)">
<path id="Fill 10" fill-rule="evenodd" clip-rule="evenodd" d="M81.0881 21.5081H77.4266V15.9231C77.4266 14.5916 77.4026 12.8783 75.5232 12.8783C73.6177 12.8783 73.3268 14.3295 73.3268 15.8282V21.5081H69.6688V10.024H73.1794V11.5942H73.2294C73.7178 10.6911 74.9134 9.73926 76.6954 9.73926C80.4028 9.73926 81.0881 12.1169 81.0881 15.2099V21.5081ZM65.5389 8.45504C64.3625 8.45504 63.4146 7.52789 63.4146 6.38483C63.4146 5.24244 64.3625 4.3153 65.5389 4.3153C66.7104 4.3153 67.6618 5.24244 67.6618 6.38483C67.6618 7.52789 66.7104 8.45504 65.5389 8.45504ZM63.7054 21.5079H67.371V10.0239H63.7054V21.5079ZM82.9119 1.00244H61.8678C60.863 1.00244 60.046 1.77918 60.046 2.73775V23.3301C60.046 24.2887 60.863 25.0668 61.8678 25.0668H82.9119C83.9196 25.0668 84.7386 24.2887 84.7386 23.3301V2.73775C84.7386 1.77918 83.9196 1.00244 82.9119 1.00244Z" fill="#4B4B4B"/>
</g>
</g>
<g id="Pinterest">
<path id="Fill 4" fill-rule="evenodd" clip-rule="evenodd" d="M12.2977 0.31543C5.67034 0.31543 0.297363 5.70208 0.297363 12.3472C0.297363 17.4447 3.46023 21.7986 7.9246 23.5513C7.81939 22.5997 7.72448 21.1391 7.9658 20.1004C8.18431 19.1613 9.37323 14.1192 9.37323 14.1192C9.37323 14.1192 9.0142 13.3984 9.0142 12.3332C9.0142 10.6601 9.98094 9.41121 11.1853 9.41121C12.2094 9.41121 12.7038 10.1814 12.7038 11.1057C12.7038 12.1385 12.0483 13.6817 11.7099 15.1121C11.4274 16.3094 12.3088 17.2861 13.4867 17.2861C15.6195 17.2861 17.2594 15.031 17.2594 11.7763C17.2594 8.89556 15.195 6.88091 12.247 6.88091C8.83248 6.88091 6.82837 9.44883 6.82837 12.1031C6.82837 13.1366 7.22566 14.2461 7.72154 14.8488C7.81939 14.9675 7.8341 15.0723 7.80467 15.194C7.71345 15.5739 7.51112 16.3913 7.47139 16.558C7.41916 16.7786 7.29703 16.825 7.06969 16.7195C5.57102 16.0195 4.63445 13.8226 4.63445 12.0581C4.63445 8.26262 7.38458 4.77701 12.5633 4.77701C16.7253 4.77701 19.961 7.75139 19.961 11.7261C19.961 15.8727 17.3529 19.21 13.7339 19.21C12.5177 19.21 11.3751 18.5763 10.9837 17.8283C10.9837 17.8283 10.3819 20.1255 10.2362 20.6883C9.96476 21.7337 9.23345 23.0438 8.74419 23.8427C9.8669 24.1909 11.0602 24.379 12.2977 24.379C18.9244 24.379 24.2974 18.9924 24.2974 12.3472C24.2974 5.70208 18.9244 0.31543 12.2977 0.31543Z" fill="#4B4B4B"/>
</g>
</g>
</svg>
